<?xml version="1.0" encoding="utf-8"?>
<!-- Generator: Adobe Illustrator 23.0.5, SVG Export Plug-In . SVG Version: 6.00 Build 0)  -->
<svg version="1.1" id="Capa_1" xmlns="http://www.w3.org/2000/svg" xmlns:xlink="http://www.w3.org/1999/xlink" x="0px" y="0px"
	 viewBox="0 0 90.7 77.8" style="enable-background:new 0 0 90.7 77.8;" xml:space="preserve">
<style type="text/css">
	.st0{fill:#d84a16;}
</style>
<path class="st0" d="M13,16.2C13,7.3,20.2,0,29.2,0h32.4c8.9,0,16.2,7.3,16.2,16.2v10c7.5,1.5,13,8.2,13,15.9v32.4
	c0,1.8-1.5,3.2-3.2,3.2s-3.2-1.5-3.2-3.2V58.3H6.5v16.2c0,1.8-1.5,3.2-3.2,3.2S0,76.3,0,74.5V42.1c0-7.7,5.4-14.3,13-15.9V16.2z
	 M6.5,51.8h77.8v-9.7c0-5.4-4.4-9.7-9.7-9.7H16.2c-5.4,0-9.7,4.4-9.7,9.7V51.8z M71.3,16.2c0-5.4-4.4-9.7-9.7-9.7H29.2
	c-5.4,0-9.7,4.4-9.7,9.7v9.7h6.5v-3.2c0-1.8,1.5-3.2,3.2-3.2h9.7c1.8,0,3.2,1.5,3.2,3.2v3.2h6.5v-3.2c0-1.8,1.5-3.2,3.2-3.2h9.7
	c1.8,0,3.2,1.5,3.2,3.2v3.2h6.5V16.2z"/>
</svg>
