<?xml version="1.0" encoding="utf-8"?>
<!-- Generator: Adobe Illustrator 23.0.5, SVG Export Plug-In . SVG Version: 6.00 Build 0)  -->
<svg version="1.1" id="Capa_1" xmlns="http://www.w3.org/2000/svg" xmlns:xlink="http://www.w3.org/1999/xlink" x="0px" y="0px"
	 viewBox="0 0 90.7 120.7" style="enable-background:new 0 0 90.7 120.7;" xml:space="preserve">
<style type="text/css">
	.st0{fill:#17C2ED;}
</style>
<path class="st0" d="M44.7,0l-0.5,0.2L3.9,9.6L0,10.6v102l4.1,0.6l40.3,7.6l0.5,0.2h10.6V0H44.7z M65.5,10.1v10.1h15.1v80.6H65.5
	v10.1h25.2V10.1H65.5z M45.4,10.2v100.6l-35.3-6.6V18.4L45.4,10.2z M37,55.4c-1.8,0-3.5,2.3-3.5,5c0,2.8,1.6,5,3.5,5
	c1.8,0,3.3-2.3,3.3-5C40.3,57.7,38.9,55.4,37,55.4z"/>
</svg>
