<?xml version="1.0" encoding="utf-8"?>
<!-- Generator: Adobe Illustrator 23.0.5, SVG Export Plug-In . SVG Version: 6.00 Build 0)  -->
<svg version="1.1" id="Capa_1" xmlns="http://www.w3.org/2000/svg" xmlns:xlink="http://www.w3.org/1999/xlink" x="0px" y="0px"
	 viewBox="0 0 90.6 90.9" style="enable-background:new 0 0 90.6 90.9;" xml:space="preserve">
<style type="text/css">
	.st0{fill:#17C2ED;}
</style>
<path class="st0" d="M81.6,45.5L81.6,45.5l-7.7-17.2c-1.5-3.3-4.7-5.4-8.3-5.4H25.1c-3.6,0-6.8,2.1-8.3,5.4L9.2,45.5H9.1
	c-3.3,0-6,2.7-6,6v21.2c0,3.3,2.7,6,6,6v7.7c0,2.5,2,4.5,4.5,4.5h10.6c2.5,0,4.5-2,4.5-4.5v-7.7H62v7.7c0,2.5,2,4.5,4.5,4.5h10.6
	c2.5,0,4.5-2,4.5-4.5v-7.7c3.3,0,6-2.7,6-6V51.5C87.7,48.2,85,45.5,81.6,45.5z M22.3,30.8c0.5-1.1,1.6-1.8,2.8-1.8h40.5
	c1.2,0,2.3,0.7,2.8,1.8l6.5,14.7H15.8L22.3,30.8z M22.7,84.9h-7.6v-6.2h7.6V84.9z M75.6,84.9H68v-6.2h7.6V84.9z M81.6,72.7H9.1V51.5
	h72.6V72.7z"/>
<path class="st0" d="M15.1,59.2h15.1v6H15.1V59.2z"/>
<path class="st0" d="M60.5,59.2h15.1v6H60.5V59.2z"/>
<path class="st0" d="M45.4,0L0,18.2v6.5L45.4,6.5l45.4,18.2v-6.5L45.4,0z"/>
</svg>
