<svg width="17" height="15" viewBox="0 0 17 15" fill="none" xmlns="http://www.w3.org/2000/svg">
<path fill="#b1afc2" d="M14.2071 1.70711C14.5976 1.31658 14.5976 0.683417 14.2071 0.292893C13.8166 -0.0976311 13.1834 -0.0976311 12.7929 0.292893L5.29289 7.79289C5.25039 7.8354 5.21251 7.88078 5.17926 7.92841C4.68075 7.65529 4.10851 7.5 3.5 7.5C1.567 7.5 0 9.067 0 11C0 12.933 1.567 14.5 3.5 14.5C5.433 14.5 7 12.933 7 11C7 10.3915 6.84471 9.81925 6.57159 9.32074C6.61922 9.28749 6.6646 9.24961 6.70711 9.20711L10.5 5.41421L12.5 7.41421L13.9142 6L13.4142 5.5L14 4.91421L15 5.91421L16.4142 4.5L13.9142 2L14.2071 1.70711Z" />
</svg>
