<?xml version="1.0" encoding="utf-8"?>
<!-- Generator: Adobe Illustrator 23.0.5, SVG Export Plug-In . SVG Version: 6.00 Build 0)  -->
<svg version="1.1" id="Capa_1" xmlns="http://www.w3.org/2000/svg" xmlns:xlink="http://www.w3.org/1999/xlink" x="0px" y="0px"
	 viewBox="0 0 90.7 90.6" style="enable-background:new 0 0 90.7 90.6;" xml:space="preserve">
<style type="text/css">
	.st0{fill:#17C2ED;}
</style>
<path class="st0" d="M87.9,90.7H31.2c-0.8,0-1.4-0.3-2-0.8s-0.8-1.2-0.8-2s0.3-1.4,0.8-2s1.2-0.8,2-0.8H85V31.1c0-0.8,0.3-1.4,0.8-2
	c0.6-0.6,1.2-0.8,2-0.8s1.4,0.3,2,0.8c0.6,0.6,0.8,1.2,0.8,2v56.7c0,0.8-0.3,1.4-0.8,2S88.6,90.7,87.9,90.7z M85,19.8
	c0-0.8-0.3-1.4-0.8-2c-0.6-0.6-1.2-0.8-2-0.8s-1.4,0.3-2,0.8c-0.6,0.6-0.8,1.2-0.8,2v2.8h-5.7v-8.5c0-0.8-0.3-1.4-0.8-2
	c-0.6-0.6-1.2-0.8-2-0.8s-1.4,0.3-2,0.8c-0.6,0.6-0.8,1.2-0.8,2v8.5h-5.7v-2.8c0-0.8-0.3-1.4-0.8-2c-0.6-0.6-1.2-0.8-2-0.8
	s-1.4,0.3-2,0.8c-0.6,0.6-0.8,1.2-0.8,2v2.8H51v-8.5c0-0.8-0.3-1.4-0.8-2c-0.6-0.6-1.2-0.8-2-0.8c-0.8,0-1.4,0.3-2,0.8
	c-0.6,0.6-0.8,1.2-0.8,2v8.5h-5.7v-2.8c0-0.8-0.3-1.4-0.8-2c-0.6-0.6-1.2-0.8-2-0.8c-0.8,0-1.4,0.3-2,0.8S34,19,34,19.8v2.8h-5.7
	v-8.5c0-0.8-0.3-1.4-0.8-2c-0.6-0.6-1.2-0.8-2-0.8c-0.8,0-1.4,0.3-2,0.8c-0.6,0.6-0.8,1.2-0.8,2v8.5h-8.5c-0.8,0-1.4,0.3-2,0.8
	c-0.6,0.6-0.8,1.2-0.8,2s0.3,1.4,0.8,2c0.6,0.6,1.2,0.8,2,0.8h8.5V34h-2.8c-0.8,0-1.4,0.3-2,0.8c-0.6,0.6-0.8,1.2-0.8,2
	s0.3,1.4,0.8,2c0.6,0.6,1.2,0.8,2,0.8h2.8v5.7h-8.5c-0.8,0-1.4,0.3-2,0.8c-0.6,0.6-0.8,1.2-0.8,2c0,0.8,0.3,1.4,0.8,2
	c0.6,0.6,1.2,0.8,2,0.8h8.5v5.7h-2.8c-0.8,0-1.4,0.3-2,0.8c-0.6,0.6-0.8,1.2-0.8,2c0,0.8,0.3,1.4,0.8,2c0.6,0.6,1.2,0.8,2,0.8h2.8
	V68h-8.5c-0.8,0-1.4,0.3-2,0.8c-0.6,0.6-0.8,1.2-0.8,2s0.3,1.4,0.8,2c0.6,0.6,1.2,0.8,2,0.8h8.5v5.7h-2.8c-0.8,0-1.4,0.3-2,0.8
	c-0.6,0.6-0.8,1.2-0.8,2c0,0.8,0.3,1.4,0.8,2c0.6,0.6,1.2,0.8,2,0.8h2.8v5.7h-17c-1.5,0-2.9-0.5-4-1.6C0.6,87.9,0,86.6,0,85V5.6
	c0-1.5,0.6-2.9,1.7-4s2.5-1.7,4-1.7H85c1.5,0,2.9,0.6,4,1.7c1.1,1.1,1.7,2.5,1.7,4v17H85C85,22.6,85,19.8,85,19.8z"/>
</svg>
