<?xml version="1.0" encoding="utf-8"?>
<!-- Generator: Adobe Illustrator 23.0.5, SVG Export Plug-In . SVG Version: 6.00 Build 0)  -->
<svg version="1.1" id="Capa_1" xmlns="http://www.w3.org/2000/svg" xmlns:xlink="http://www.w3.org/1999/xlink" x="0px" y="0px"
	 viewBox="0 0 90.1 97.6" style="enable-background:new 0 0 90.1 97.6;" xml:space="preserve">
<style type="text/css">
	.st0{fill:#d84a16;}
</style>
<path class="st0" d="M86.8,6.1C83.8,2.3,79.1,0,74.2,0h-2.5L60.3,43.9H-0.6v6.5c0,9.5,3.8,17.9,10.7,23.9c6.5,5.6,15.4,8.7,25.1,8.7
	h7.8l-1.6,14.6h41.1v-50l7.2-27.8C90.8,15.1,89.8,10,86.8,6.1z M75.9,91.1H48.6l1.6-14.6h-15c-17.2,0-29.3-10.7-29.3-26h70V91.1z
	 M83.3,18.2l-6.7,25.7H67l9.6-37.1C81.6,8.2,84.6,13.2,83.3,18.2L83.3,18.2z"/>
</svg>
